<?xml version="1.0" standalone="no"?>
<!DOCTYPE svg PUBLIC "-//W3C//DTD SVG 20010904//EN"
 "http://www.w3.org/TR/2001/REC-SVG-20010904/DTD/svg10.dtd">
<svg version="1.0" xmlns="http://www.w3.org/2000/svg"
 width="402.000000pt" height="402.000000pt" viewBox="0 0 402.000000 402.000000"
 preserveAspectRatio="xMidYMid meet">
<metadata>
Created by potrace 1.11, written by Peter Selinger 2001-2013
</metadata>
<g transform="translate(0.000000,402.000000) scale(0.100000,-0.100000)"
fill="#000000" stroke="none">
<path d="M1800 3899 c-258 -30 -529 -120 -752 -252 -576 -339 -938 -968 -938
-1630 1 -736 415 -1398 1075 -1717 254 -123 544 -190 818 -190 736 1 1398 415
1717 1075 123 254 190 544 190 818 -1 963 -708 1767 -1663 1892 -126 16 -324
18 -447 4z m792 -851 c425 -245 565 -330 579 -353 18 -28 19 -63 19 -680 -1
-528 -3 -655 -14 -674 -9 -17 -196 -131 -571 -348 -467 -271 -563 -323 -595
-323 -32 0 -128 52 -595 323 -372 216 -562 332 -571 348 -11 19 -13 150 -14
681 l0 657 23 25 c12 14 268 167 568 339 576 331 564 325 592 326 9 1 270
-144 579 -321z"/>
<path d="M1568 2892 c-235 -136 -427 -249 -427 -252 0 -8 855 -500 869 -500
14 0 869 492 869 500 0 9 -855 500 -870 500 -8 0 -206 -112 -441 -248z m527
-106 c69 -29 87 -99 39 -147 -100 -99 -330 -29 -288 88 21 61 163 95 249 59z"/>
<path d="M1030 1957 l0 -494 430 -251 c237 -139 433 -252 435 -252 3 0 4 226
3 502 l-3 502 -420 243 c-231 133 -426 242 -432 243 -10 0 -13 -105 -13 -493z
m284 182 c40 -31 66 -90 66 -149 0 -44 -5 -56 -29 -81 -18 -17 -40 -29 -56
-29 -83 0 -151 115 -125 211 18 67 89 91 144 48z m345 -175 c38 -31 66 -118
56 -171 -15 -79 -93 -108 -154 -58 -66 56 -81 185 -26 232 36 31 85 30 124 -3z
m-339 -283 c14 -9 35 -37 48 -61 53 -105 0 -219 -92 -196 -85 21 -137 184 -79
248 36 40 74 43 123 9z m320 -166 c55 -28 92 -134 70 -199 -33 -101 -153 -83
-196 29 -46 121 28 221 126 170z"/>
<path d="M2545 2211 l-420 -239 -3 -501 c-1 -276 1 -501 4 -501 4 0 200 111
435 247 l429 246 0 494 c0 388 -3 493 -12 493 -7 -1 -202 -108 -433 -239z
m299 18 c79 -36 47 -189 -53 -256 -43 -29 -103 -31 -131 -3 -50 50 -5 188 79
242 49 31 68 34 105 17z m-427 -814 c43 -30 38 -120 -9 -188 -52 -74 -142
-103 -189 -61 -32 29 -24 127 15 183 51 74 131 102 183 66z"/>
</g>
</svg>
